<?xml version="1.0" encoding="utf-8"?>
<!-- Generator: Adobe Illustrator 27.3.1, SVG Export Plug-In . SVG Version: 6.00 Build 0)  -->
<svg version="1.1" id="Layer_1" xmlns="http://www.w3.org/2000/svg" xmlns:xlink="http://www.w3.org/1999/xlink" x="0px" y="0px"
	 viewBox="0 0 1000 1000" style="enable-background:new 0 0 1000 1000;" xml:space="preserve">
<style type="text/css">
	.st0{display:none;enable-background:new    ;}
	.st1{font-family:'AgencyFB-Reg';}
	.st2{font-size:439.6127px;}
	.st3{display:none;}
	.st4{display:inline;}
	.st5{fill:#231F20;}
</style>
<text transform="matrix(1.1374 0 0 1 422.918 645.7656)" class="st0 st1 st2">P</text>
<g class="st3">
	<path class="st4" d="M621.6,564.4l-107,182L277.8,336.2l77.7-0.3l159.6,277.6l66.2-101.7L621.6,564.4z"/>
</g>
<g class="st3">
	<path class="st4" d="M618.4,563.1l-26.5,52.3L423.3,336l63.7-0.2l91,174.7l36.3,60.6L618.4,563.1z"/>
</g>
<polygon class="st3" points="663.4,490.2 570.5,493.3 622.9,563.6 586.1,625.1 412.1,336 754.3,336 "/>
<polygon class="st5" points="499.8,961.9 0.4,100.7 162.5,100.7 579.4,824.1 "/>
<polygon class="st5" points="643.5,712.8 292.2,100.7 455.2,100.7 723.1,574.9 "/>
<polygon class="st5" points="291.6,100 997.3,99 916.4,240.5 371.8,237.5 "/>
<polygon class="st5" points="1000,99 791.1,456.9 709.7,315.7 840.8,99 "/>
<polygon class="st5" points="791.2,456.9 601.7,459.2 551.3,315.7 755.4,315.7 "/>
<polygon class="st5" points="548.1,878.6 723.1,574.9 603.5,503.2 427.1,808.7 "/>
</svg>
