<?xml version="1.0" encoding="UTF-8"?>
<svg id="Layer_1" data-name="Layer 1" xmlns="http://www.w3.org/2000/svg" viewBox="0 0 359.38 347.34">
  <defs>
    <style>
      .cls-1 {
        fill: #49021f;
      }

      .cls-2 {
        fill: #f36;
      }
    </style>
  </defs>
  <path class="cls-1" d="m179.34,347.25c-40.77,0-81.55.3-122.31-.19-11.77-.14-22.64-4.9-32.19-12.07-13.12-9.85-20.66-23.13-24.09-39.01-.93-4.3-.68-8.59-.68-12.88C.03,207.54-.14,131.98.24,56.42c.06-11.36,4.9-21.93,11.77-31.15C21.92,11.97,35.48,4.21,51.55,1,55.43.23,59.58,0,63.68,0c77.18.08,154.36-.06,231.54.14,18.15.05,34.15,6.28,46.78,19.79,9.99,10.69,15.8,23.28,16.47,38.04,1.71,37.59.45,75.2.7,112.8.24,36.16,0,72.32.08,108.48.04,16.54-3.7,31.84-14.34,44.89-9.33,11.44-21.24,18.53-35.75,21.82-6.79,1.54-13.47,1.23-20.2,1.25-36.53.1-73.07.05-109.6.05Zm75.07-180.95c0-15.71.12-31.42-.05-47.13-.1-8.94.69-17.89-.55-26.82-.32-2.27-1.1-2.55-2.99-2.53-7.35.07-14.72.22-22.06-.05-3.49-.13-4.4.95-4.36,4.38.18,14.58-.02,29.17.16,43.76.04,3.08-.97,4-3.8,3.59-2.07-.3-4.16-.73-6.24-.72-11.41.04-22.31,2.12-32.29,8.05-13.93,8.29-23.75,20.05-27.64,35.7-3.75,15.1-3.29,30.46,2.71,45.12,7.46,18.23,22.5,27.27,40.85,30.49,7.98,1.4,16.55.82,24.87-.37,10.8-1.54,21.27-4.03,31.32-8.32,2.3-.98,3.17-2.18,2.51-4.79-1.43-5.61-2.58-11.24-2.52-17.16.21-21.07.08-42.14.08-63.21Zm-152.6,10.71c0,25.55.04,51.1-.05,76.66,0,2.83.69,3.94,3.73,3.85,7.47-.2,14.96-.17,22.43-.02,2.99.06,3.86-1.1,3.86-3.96-.06-50.98-.06-101.96,0-152.94,0-2.9-.88-4-3.85-3.94-7.23.15-14.46.2-21.69-.01-3.4-.1-4.53.93-4.51,4.45.14,25.3.07,50.61.07,75.91Z"/>
  <path class="cls-2" d="m254.41,166.3c0,21.07.13,42.14-.08,63.21-.06,5.92,1.09,11.54,2.52,17.16.66,2.61-.2,3.8-2.51,4.79-10.05,4.29-20.52,6.78-31.32,8.32-8.33,1.18-16.9,1.77-24.87.37-18.36-3.22-33.39-12.26-40.85-30.49-6-14.66-6.46-30.02-2.71-45.12,3.89-15.66,13.71-27.42,27.64-35.7,9.98-5.94,20.88-8.01,32.29-8.05,2.08,0,4.17.42,6.24.72,2.83.41,3.84-.51,3.8-3.59-.17-14.58.03-29.17-.16-43.76-.04-3.43.87-4.51,4.36-4.38,7.35.27,14.71.13,22.06.05,1.88-.02,2.67.27,2.99,2.53,1.24,8.94.46,17.89.55,26.82.17,15.71.05,31.42.05,47.13Zm-29.93,35.07c0-10.47,0-20.95,0-31.42,0-5.44-.33-6.11-5.51-7.25-2.49-.55-5.02-1.35-7.67-1.01-10.88,1.38-19.54,6.04-25.4,15.77-5.43,9-6.89,18.58-6.24,28.82.63,9.87,5.02,18.03,11.7,24.79,7.11,7.19,16.26,9.39,26.25,8.43,5.68-.55,6.88-1.71,6.88-7.46,0-10.22,0-20.45,0-30.67Z"/>
  <path class="cls-2" d="m101.81,177.02c0-25.3.06-50.61-.07-75.91-.02-3.52,1.11-4.55,4.51-4.45,7.22.21,14.46.17,21.69.01,2.97-.06,3.85,1.04,3.85,3.94-.06,50.98-.06,101.96,0,152.94,0,2.86-.87,4.02-3.86,3.96-7.48-.15-14.96-.19-22.43.02-3.04.08-3.74-1.02-3.73-3.85.09-25.55.05-51.1.05-76.66Z"/>
  <path class="cls-1" d="m224.48,201.38c0,10.22,0,20.45,0,30.67,0,5.75-1.2,6.91-6.88,7.46-9.99.96-19.14-1.24-26.25-8.43-6.68-6.76-11.07-14.92-11.7-24.79-.65-10.24.81-19.82,6.24-28.82,5.87-9.73,14.52-14.38,25.4-15.77,2.66-.34,5.18.46,7.67,1.01,5.18,1.14,5.51,1.81,5.51,7.25,0,10.47,0,20.95,0,31.42Z"/>
</svg>