<?xml version="1.0" encoding="utf-8"?>
<!-- Generator: Adobe Illustrator 27.3.1, SVG Export Plug-In . SVG Version: 6.00 Build 0)  -->
<svg version="1.1"
	 id="svg20" xmlns:svg="http://www.w3.org/2000/svg" xmlns:cc="http://creativecommons.org/ns#" xmlns:sodipodi="http://sodipodi.sourceforge.net/DTD/sodipodi-0.dtd" xmlns:dc="http://purl.org/dc/elements/1.1/" xmlns:inkscape="http://www.inkscape.org/namespaces/inkscape" xmlns:rdf="http://www.w3.org/1999/02/22-rdf-syntax-ns#" inkscape:export-xdpi="561.73712"
	 xmlns="http://www.w3.org/2000/svg" xmlns:xlink="http://www.w3.org/1999/xlink" x="0px" y="0px" viewBox="0 0 700 700"
	 style="enable-background:new 0 0 700 700;" xml:space="preserve">
<style type="text/css">
	.st0{fill:#001E36;}
	.st1{fill:#31A8FF;}
</style>
<sodipodi:namedview  bordercolor="#666666" borderopacity="1" gridtolerance="10" guidetolerance="10" id="namedview22" inkscape:current-layer="svg20" inkscape:cx="393.14717" inkscape:cy="320.92781" inkscape:pageopacity="0" inkscape:pageshadow="2" inkscape:window-height="837" inkscape:window-maximized="1" inkscape:window-width="1600" inkscape:window-x="-8" inkscape:window-y="-8" inkscape:zoom="0.71315043" objecttolerance="10" pagecolor="#ffffff" showgrid="false">
	</sodipodi:namedview>
<g id="Layer_2_00000001639962837727916560000009292694444153199287_" transform="matrix(2.0606602,0,0,2.0606602,102.72078,108.90276)" inkscape:export-filename="G:\Users\suitedoalex\sites\adobe-photoshop-logo-4.png" inkscape:export-xdpi="77.645012" inkscape:export-ydpi="77.645012">
	<g id="Surfaces">
		<g id="Photo_Surface">
			<g id="Outline_no_shadow">
				<path id="rect8" class="st0" d="M13.2-44.2h213.6c32.3,0,58.6,26.2,58.6,58.6v205.3c0,32.3-26.2,58.6-58.6,58.6H13.2
					c-32.3,0-58.6-26.2-58.6-58.6V14.3C-45.4-18-19.2-44.2,13.2-44.2z"/>
			</g>
		</g>
	</g>
	<g id="Outlined_Mnemonics_Logos">
		<g id="Ps">
			<path id="path13" inkscape:connector-curvature="0" class="st1" d="M29.1,181.9V40.1c0-1,0.4-1.6,1.3-1.6c2.4,0,4.5,0,7.8-0.1
				c3.3-0.1,6.8-0.1,10.5-0.2c3.8-0.1,7.8-0.1,12-0.2c4.2-0.1,8.4-0.1,12.5-0.1c11.2,0,20.7,1.4,28.4,4.2
				c6.9,2.3,13.3,6.2,18.5,11.3c4.5,4.4,7.9,9.8,10.1,15.6c2.1,5.7,3.1,11.8,3.1,17.9c0,11.8-2.7,21.6-8.2,29.3
				c-5.5,7.7-13.3,13.6-22.2,16.8c-9.3,3.5-19.7,4.7-31.1,4.7c-3.3,0-5.5,0-6.9-0.1c-1.3-0.1-3.3-0.1-6-0.1v44.3
				c0.1,1-0.5,1.9-1.5,2c-0.2,0-0.3,0-0.5,0H30.7C29.6,183.7,29.1,183.1,29.1,181.9L29.1,181.9z M59.1,65.2v46.2
				c1.9,0.1,3.7,0.2,5.3,0.2h7.3c5.4,0,10.7-0.9,15.9-2.5c4.4-1.3,8.3-3.8,11.3-7.3c2.9-3.4,4.3-8.1,4.3-14.2
				c0.1-4.3-1-8.5-3.2-12.2c-2.3-3.6-5.7-6.3-9.7-7.9c-5.2-2-10.7-2.9-16.2-2.8c-3.6,0-6.7,0-9.4,0.1C62,64.9,60.1,65,59.1,65.2
				L59.1,65.2z"/>
			<path id="path15" inkscape:connector-curvature="0" class="st1" d="M219.2,103c-4.2-2.1-8.6-3.7-13.2-4.7
				c-5.1-1.2-10.2-1.8-15.4-1.8c-2.8-0.1-5.6,0.3-8.3,1c-1.7,0.4-3.3,1.4-4.3,2.8c-0.7,1.1-1.1,2.4-1.1,3.8c0,1.3,0.5,2.5,1.3,3.6
				c1.3,1.5,2.9,2.8,4.7,3.7c3.2,1.7,6.4,3.2,9.8,4.5c7.4,2.5,14.6,5.9,21.2,10.1c4.5,2.8,8.3,6.8,10.9,11.4
				c2.2,4.4,3.3,9.3,3.2,14.2c0.1,6.5-1.7,12.9-5.3,18.3c-3.9,5.5-9.2,9.8-15.4,12.3c-6.7,3-15.1,4.4-25,4.4
				c-6.3,0.1-12.6-0.5-18.7-1.8c-4.9-0.9-9.6-2.4-14.1-4.4c-1-0.5-1.6-1.5-1.6-2.7v-24c-0.1-0.5,0.2-0.9,0.6-1.2
				c0.4-0.2,0.9-0.2,1.2,0.1c5.3,3.1,11.1,5.4,17.1,6.8c5.3,1.3,10.7,2,16.2,2.1c5.2,0,9-0.7,11.4-2c2.3-1,3.7-3.3,3.7-5.8
				c0-1.9-1.1-3.8-3.3-5.5c-2.2-1.8-6.7-3.9-13.5-6.4c-7-2.4-13.6-5.8-19.6-10c-4.3-3-7.9-7-10.4-11.6c-2.2-4.4-3.3-9.2-3.2-14.1
				c0-5.9,1.6-11.6,4.7-16.6c3.5-5.5,8.5-9.9,14.4-12.6c6.5-3.3,14.6-4.9,24.4-4.9c5.7,0,11.4,0.4,17.1,1.2
				c4.1,0.5,8.1,1.6,11.9,3.2c0.6,0.2,1.1,0.6,1.3,1.2c0.1,0.5,0.2,1.1,0.2,1.7v22.4c0,0.5-0.2,1-0.7,1.3
				C220.5,103.3,219.8,103.3,219.2,103L219.2,103z"/>
		</g>
	</g>
</g>
</svg>
