<?xml version="1.0" encoding="utf-8"?>
<!-- Generator: Adobe Illustrator 27.3.1, SVG Export Plug-In . SVG Version: 6.00 Build 0)  -->
<svg version="1.1" id="Layer_1" xmlns="http://www.w3.org/2000/svg" xmlns:xlink="http://www.w3.org/1999/xlink" x="0px" y="0px"
	 viewBox="0 0 50 50" style="enable-background:new 0 0 50 50;" xml:space="preserve">
<style type="text/css">
	.st0{fill:#FFFFFF;}
</style>
<g>
	<path class="st0" d="M7.3,6.7C7.6,6.8,7.9,6.9,8.2,7c3.4,1,6.8,1.9,10.2,2.9c4.1,1.2,8.2,2.4,12.3,3.5c3.9,1.1,7.8,2.2,11.7,3.4
		c0.9,0.3,1,0.4,0.3,1.1c-6.1,5.8-12.1,11.7-18.2,17.5c-2.5,2.4-5,4.8-7.5,7.2c-0.2,0.2-0.4,0.4-0.6,0.5c-0.3,0.2-0.4,0.2-0.5-0.1
		c-0.1-0.4-0.3-0.8-0.4-1.2c-1.2-4.8-2.4-9.6-3.6-14.4c-1.3-5.4-2.7-10.7-4-16.1c-0.3-1.3-0.6-2.6-1-3.9C6.8,7,6.9,6.7,7.3,6.7z
		 M16.3,42c0,0,0.1,0,0.1,0.1c1.9-1.8,3.8-3.7,5.7-5.5c-2.6-0.7-5.2-1.5-7.7-2.2C15.1,36.9,15.7,39.4,16.3,42z M29.6,29.3
		c1.9-1.9,3.8-3.7,5.7-5.5c-2.6-0.7-5.1-1.5-7.6-2.2C28.4,24.2,29,26.8,29.6,29.3z M42,17.5c-2.6-0.7-5.1-1.5-7.7-2.2
		c0.6,2.6,1.3,5.1,1.9,7.7C38.2,21.1,40.1,19.3,42,17.5z M10,16.5c0.6,2.6,1.3,5.1,1.9,7.7c1.9-2,3.8-3.7,5.7-5.5
		C15,18,12.6,17.3,10,16.5z M9.7,15.3c1.9-1.8,3.8-3.6,5.7-5.5c-2.6-0.7-5.1-1.5-7.6-2.2C8.5,10.3,9.1,12.8,9.7,15.3z M18.2,19.3
		c-1.9,1.9-3.8,3.7-5.7,5.5c2.6,0.7,5,1.4,7.6,2.2C19.4,24.4,18.8,21.9,18.2,19.3z M21.2,27.3c2.6,0.7,5.1,1.4,7.6,2.2
		c-0.6-2.6-1.3-5.1-1.9-7.6C25,23.7,23.2,25.5,21.2,27.3z M25.5,12.8c0.6,2.6,1.2,5,1.9,7.6c1.9-1.8,3.7-3.6,5.6-5.4
		C30.5,14.2,28.1,13.5,25.5,12.8z M12.2,25.5c0.6,2.5,1.2,5,1.9,7.6c1.9-1.8,3.8-3.6,5.7-5.4C17.2,27,14.8,26.3,12.2,25.5z
		 M21.2,28.1c0.6,2.6,1.2,5,1.9,7.6c1.9-1.8,3.7-3.6,5.6-5.4C26.1,29.5,23.7,28.8,21.2,28.1z M20.8,26.6c1.9-1.8,3.8-3.6,5.6-5.4
		c-2.5-0.7-5-1.4-7.5-2.2C19.6,21.6,20.2,24.1,20.8,26.6z M18.6,17.8c1.9-1.8,3.7-3.6,5.6-5.4c-2.5-0.7-5-1.4-7.5-2.1
		C17.4,12.8,18,15.3,18.6,17.8z M35.4,23c-0.6-2.6-1.2-5-1.8-7.5c-1.9,1.8-3.7,3.6-5.6,5.4C30.5,21.6,32.9,22.3,35.4,23z M10.3,15.8
		c2.5,0.7,5,1.4,7.5,2.1c-0.6-2.5-1.2-5-1.9-7.5C14.1,12.2,12.2,14,10.3,15.8z M20.4,28.2c-1.9,1.8-3.7,3.6-5.6,5.4
		c2.5,0.7,5,1.4,7.5,2.1C21.6,33.2,21,30.7,20.4,28.2z M26.6,20.5c-0.6-2.5-1.2-5-1.8-7.5c-1.9,1.8-3.7,3.6-5.6,5.4
		C21.7,19.1,24.1,19.7,26.6,20.5z"/>
</g>
</svg>
