<?xml version="1.0" encoding="utf-8"?>
<!-- Generator: Adobe Illustrator 27.3.1, SVG Export Plug-In . SVG Version: 6.00 Build 0)  -->
<svg version="1.1" id="Layer_1" xmlns="http://www.w3.org/2000/svg" xmlns:xlink="http://www.w3.org/1999/xlink" x="0px" y="0px"
	 viewBox="0 0 800 800" style="enable-background:new 0 0 800 800;" xml:space="preserve">
<style type="text/css">
	.st0{fill:#961A1F;}
</style>
<path class="st0" d="M630.9,472.6c-7.1,3-14.2,4.5-21.4,4.5c-11.4,0-21.7-2-30.8-5.9c-8.8-3.7-16.6-9.3-23-16.4
	c-6.2-7-11.1-15.1-14.4-24.5c-3.3-9.4-5-19.5-5-30.4c0-11.2,1.7-21.4,5-31c3.3-9.6,8.1-17.9,14.3-24.9c6.3-7.2,14.2-12.9,23-16.7
	c9.7-4.2,20.2-6.3,30.8-6.1c7.7,0,15,1.2,22.1,3.5c7.1,2.3,13.6,5.7,19.4,10.1c5.8,4.4,10.5,10,14.2,16.5c3.8,6.9,6.2,14.6,6.9,22.5
	h-31.2c-2-8.3-5.7-14.6-11.2-18.7c-5.9-4.3-13-6.5-20.2-6.2c-7.4,0-13.6,1.4-18.7,4.3c-5.1,2.8-9.3,6.6-12.5,11.5
	c-3.2,4.8-5.5,10.3-7,16.4c-1.4,6.1-2.2,12.4-2.2,19c0,6.2,0.7,12.3,2.2,18.3c1.4,5.9,3.8,11.2,7,16c3.2,4.7,7.4,8.5,12.5,11.4
	c5.1,2.9,11.4,4.3,18.7,4.3c10.8,0,19.2-2.8,25.1-8.2c5.9-5.5,9.3-13.4,10.4-23.8H612v-24.6h62.4v80.4h-20.8l-3.3-16.8
	C645.3,463.8,638.6,469.2,630.9,472.6z M727.5,325v121.1H800v27.6H694.8V325H727.5z M92.8,400c0-23.6,11.4-45.9,31.6-65.4l37,140.7
	h25.5l35.8-127.2L258,475.3h25.5l44-161.9h-28.7l-28.7,124.2l-34.6-124.2h-26.3l-34.6,124.2l-28-121.1
	c49.6-34.2,128.9-56.3,218.3-56.3c83.7,0,158.8,17.6,208.7,48.2c-54.4-51.2-152.2-87.1-263.8-87.1C138.7,221.2,0,301.2,0,400
	s138.7,178.9,309.8,178.9c111.3,0,208.7-35.8,263.3-86.7c-49.9,30.4-124.7,47.6-208.1,47.6C214.6,539.8,92.8,477.2,92.8,400
	L92.8,400z M399.3,381.5c-3.8-5.4-8.9-9.8-14.8-12.8c-6.5-3.1-13.6-4.6-20.7-4.5c-8.7,0-16.5,1.6-23.3,4.7
	c-6.4,2.9-12,7.4-16.3,12.9c-8.1,10.4-12.4,25-12.4,42.3c0,7.7,1.1,14.9,3.2,21.4c2,6.3,5.2,12.1,9.5,17.2
	c8.7,10.1,21.1,15.5,35.9,15.5c7.8,0,14.1-0.8,19.4-2.5c4.6-1.4,7.7-3.3,10.2-5c6.2-4.1,11.3-9.7,14.8-16.3c3-5.5,4.5-10.8,4.8-13.4
	l0.2-1.8h-21.1l-0.1,1.5c-0.6,6.9-9.6,19.1-25.6,19.1c-22.9,0-28.4-16.6-28.8-31.2h76.9v-1.7c0.1-8.6-0.8-17.2-2.8-25.5
	C406.5,394.3,403.4,387.6,399.3,381.5z M361.3,383.2c17,0,26.1,9.2,27.8,28h-55C334.9,395.9,347,383.2,361.3,383.2z M517.3,397
	c-1.9-6.2-4.9-12-8.9-17.2c-3.9-4.9-8.9-8.8-14.6-11.5c-6.1-2.8-12.8-4.3-19.5-4.2c-6.2,0-12.2,1.4-17.7,4.3
	c-4.4,2.3-8.4,5.5-11.5,9.3v-49.7h-21v147.1h20v-10c2,2.6,4.4,5,7,6.9c5.7,4.1,12.7,6.2,20.9,6.2c8.8,0,16.7-2,23.3-5.9
	c5.9-3.5,11-8.5,14.9-14.8c3.7-6,6.3-12.6,7.8-19.5c1.5-6.6,2.3-13.3,2.3-20.1C520.4,410.9,519.4,403.8,517.3,397L517.3,397z
	 M498.4,420.9c0,11.5-2.3,21.2-6.7,28c-4.3,7-12,11.1-20.2,10.8c-12.6,0-27.3-8.8-27.3-33.6c0-11.9,1.5-21,4.5-28
	c4.3-10,11.7-14.9,22.4-14.9c11.4,0,19.1,4.4,23.3,13.7C497.9,404.5,498.4,413.8,498.4,420.9L498.4,420.9z"/>
</svg>
